<?xml version="1.0" encoding="utf-8"?>
<!-- Generator: Adobe Illustrator 21.0.0, SVG Export Plug-In . SVG Version: 6.00 Build 0)  -->
<svg version="1.1" id="Layer_1" xmlns="http://www.w3.org/2000/svg" xmlns:xlink="http://www.w3.org/1999/xlink" x="0px" y="0px"
	 viewBox="0 0 841.9 595.3" style="enable-background:new 0 0 841.9 595.3;" xml:space="preserve">
<style type="text/css">
	.st0{fill:#009966;}
	.st1{fill:#FFFFFF;}
</style>
<path class="st0" d="M703.2,547H136.8c-15.8,0-28.8-13-28.8-28.8V80.8C108,65,121,52,136.8,52h566.4C719,52,732,65,732,80.8v437.4
	C732,534,719,547,703.2,547z"/>
<path class="st1" d="M231,208.3h-43c-4.4,0-8-3.6-8-8v-33c0-4.4,3.6-8,8-8h43c4.4,0,8,3.6,8,8v33C239,204.7,235.4,208.3,231,208.3z"
	/>
<path class="st1" d="M298,208.3h-43c-4.4,0-8-3.6-8-8v-33c0-4.4,3.6-8,8-8h43c4.4,0,8,3.6,8,8v33C306,204.7,302.4,208.3,298,208.3z"
	/>
<path class="st1" d="M231,266.3h-43c-4.4,0-8-3.6-8-8v-33c0-4.4,3.6-8,8-8h43c4.4,0,8,3.6,8,8v33C239,262.7,235.4,266.3,231,266.3z"
	/>
<path class="st1" d="M231,325.3h-43c-4.4,0-8-3.6-8-8v-33c0-4.4,3.6-8,8-8h43c4.4,0,8,3.6,8,8v33C239,321.7,235.4,325.3,231,325.3z"
	/>
<path class="st1" d="M298,325.3h-43c-4.4,0-8-3.6-8-8v-33c0-4.4,3.6-8,8-8h43c4.4,0,8,3.6,8,8v33C306,321.7,302.4,325.3,298,325.3z"
	/>
<path class="st1" d="M298,442.3h-43c-4.4,0-8-3.6-8-8v-33c0-4.4,3.6-8,8-8h43c4.4,0,8,3.6,8,8v33C306,438.7,302.4,442.3,298,442.3z"
	/>
<path class="st1" d="M231,442.3h-43c-4.4,0-8-3.6-8-8v-33c0-4.4,3.6-8,8-8h43c4.4,0,8,3.6,8,8v33C239,438.7,235.4,442.3,231,442.3z"
	/>
<path class="st1" d="M366,208.3h-43c-4.4,0-8-3.6-8-8v-33c0-4.4,3.6-8,8-8h43c4.4,0,8,3.6,8,8v33C374,204.7,370.4,208.3,366,208.3z"
	/>
<path class="st1" d="M366,325.3h-43c-4.4,0-8-3.6-8-8v-33c0-4.4,3.6-8,8-8h43c4.4,0,8,3.6,8,8v33C374,321.7,370.4,325.3,366,325.3z"
	/>
<path class="st1" d="M366,383.3h-43c-4.4,0-8-3.6-8-8v-33c0-4.4,3.6-8,8-8h43c4.4,0,8,3.6,8,8v33C374,379.7,370.4,383.3,366,383.3z"
	/>
<path class="st1" d="M366,442.3h-43c-4.4,0-8-3.6-8-8v-33c0-4.4,3.6-8,8-8h43c4.4,0,8,3.6,8,8v33C374,438.7,370.4,442.3,366,442.3z"
	/>
<path class="st1" d="M520,208.3h-43c-4.4,0-8-3.6-8-8v-33c0-4.4,3.6-8,8-8h43c4.4,0,8,3.6,8,8v33C528,204.7,524.4,208.3,520,208.3z"
	/>
<path class="st1" d="M595,208.3h-43c-4.4,0-8-3.6-8-8v-33c0-4.4,3.6-8,8-8h43c4.4,0,8,3.6,8,8v33C603,204.7,599.4,208.3,595,208.3z"
	/>
<path class="st1" d="M519.5,266.3h-43c-4.4,0-8-3.6-8-8v-33c0-4.4,3.6-8,8-8h43c4.4,0,8,3.6,8,8v33
	C527.5,262.7,523.9,266.3,519.5,266.3z"/>
<path class="st1" d="M519,325.3h-43c-4.4,0-8-3.6-8-8v-33c0-4.4,3.6-8,8-8h43c4.4,0,8,3.6,8,8v33C527,321.7,523.4,325.3,519,325.3z"
	/>
<path class="st1" d="M591,325.3h-43c-4.4,0-8-3.6-8-8v-33c0-4.4,3.6-8,8-8h43c4.4,0,8,3.6,8,8v33C599,321.7,595.4,325.3,591,325.3z"
	/>
<path class="st1" d="M591,442.3h-43c-4.4,0-8-3.6-8-8v-33c0-4.4,3.6-8,8-8h43c4.4,0,8,3.6,8,8v33C599,438.7,595.4,442.3,591,442.3z"
	/>
<path class="st1" d="M519,442.3h-43c-4.4,0-8-3.6-8-8v-33c0-4.4,3.6-8,8-8h43c4.4,0,8,3.6,8,8v33C527,438.7,523.4,442.3,519,442.3z"
	/>
<path class="st1" d="M519,383.3h-43c-4.4,0-8-3.6-8-8v-33c0-4.4,3.6-8,8-8h43c4.4,0,8,3.6,8,8v33C527,379.7,523.4,383.3,519,383.3z"
	/>
<path class="st1" d="M649,266.3h-43c-4.4,0-8-3.6-8-8v-33c0-4.4,3.6-8,8-8h43c4.4,0,8,3.6,8,8v33C657,262.7,653.4,266.3,649,266.3z"
	/>
<path class="st1" d="M649,383.3h-43c-4.4,0-8-3.6-8-8v-33c0-4.4,3.6-8,8-8h43c4.4,0,8,3.6,8,8v33C657,379.7,653.4,383.3,649,383.3z"
	/>
</svg>
