<svg id="Layer_1" data-name="Layer 1" xmlns="http://www.w3.org/2000/svg" viewBox="0 0 461.12 280.94"><defs><style>.cls-1{fill:#009245;}.cls-1,.cls-2{stroke:#c69c6d;stroke-miterlimit:10;stroke-width:5px;}.cls-2{fill:#c69c6d;}.cls-3,.cls-5{fill:#fff;}.cls-4{fill:#666;}.cls-5{font-size:23.94px;font-family:Chalkduster, Chalkduster;}.cls-6{letter-spacing:-0.02em;}.cls-7{letter-spacing:0.03em;}.cls-8{letter-spacing:-0.02em;}.cls-9{letter-spacing:0em;}.cls-10{letter-spacing:0em;}.cls-11{letter-spacing:0.02em;}.cls-12{letter-spacing:-0.03em;}.cls-13{letter-spacing:-0.03em;}.cls-14{letter-spacing:-0.06em;}.cls-15{letter-spacing:-0.01em;}</style></defs><title>scrum</title><rect class="cls-1" x="2.5" y="2.5" width="456.12" height="236.88"/><rect class="cls-2" x="2.5" y="239.38" width="456.12" height="39.06"/><rect class="cls-3" x="369.64" y="226.78" width="61.11" height="8.82" rx="3.5" ry="3.5"/><rect class="cls-3" x="386.41" y="216.03" width="27.57" height="8.82" rx="3.5" ry="3.5"/><rect x="-1.36" y="189.91" width="75.6" height="30.24" rx="12" ry="12" transform="translate(155.88 34.28) rotate(45)"/><rect class="cls-4" x="-5.79" y="211.38" width="65.49" height="6.28" rx="2.17" ry="2.17" transform="translate(159.81 43.77) rotate(45)"/><rect class="cls-3" x="54.16" y="226.78" width="65.52" height="8.82" rx="3.5" ry="3.5"/><text class="cls-5" transform="translate(82.32 117.62)">———————————————————</text><text class="cls-5" transform="translate(131.75 65.24)">S<tspan class="cls-6" x="11.9" y="0">c</tspan><tspan class="cls-7" x="26.45" y="0">r</tspan><tspan class="cls-8" x="39.73" y="0">u</tspan><tspan class="cls-9" x="55.68" y="0">m P</tspan><tspan class="cls-8" x="108.83" y="0">l</tspan><tspan class="cls-10" x="119.57" y="0">an</tspan><tspan class="cls-11" x="153.64" y="0">n</tspan><tspan x="171.63" y="0">i</tspan><tspan class="cls-12" x="181.07" y="0">n</tspan><tspan x="197.89" y="0">g</tspan><tspan x="-35.13" y="28.73">M</tspan><tspan class="cls-13" x="-15" y="28.73">a</tspan><tspan x="0.74" y="28.73">de Simp</tspan><tspan class="cls-14" x="106.55" y="28.73">l</tspan><tspan x="116.47" y="28.73">e (ß</tspan><tspan class="cls-15" x="171.73" y="28.73">et</tspan><tspan x="197.02" y="28.73">a)…</tspan></text></svg>